<?xml version="1.0" standalone="no"?>
<!DOCTYPE svg PUBLIC "-//W3C//DTD SVG 20010904//EN"
 "http://www.w3.org/TR/2001/REC-SVG-20010904/DTD/svg10.dtd">
<svg version="1.0" xmlns="http://www.w3.org/2000/svg"
 width="360.000000pt" height="360.000000pt" viewBox="0 0 360.000000 360.000000"
 preserveAspectRatio="xMidYMid meet">

<g transform="translate(0.000000,360.000000) scale(0.100000,-0.100000)"
fill="#000000" stroke="none">
<path d="M1255 2044 c6 -5 25 -23 44 -39 19 -17 31 -24 27 -17 -14 24 12 12
72 -33 33 -25 64 -45 68 -45 5 0 -23 23 -61 50 -38 28 -75 48 -82 46 -7 -3
-13 -1 -13 4 0 5 -15 17 -32 26 -18 9 -28 12 -23 8z"/>
<path d="M2358 2043 c7 -3 16 -2 19 1 4 3 -2 6 -13 5 -11 0 -14 -3 -6 -6z"/>
<path d="M2791 2034 c0 -11 3 -14 6 -6 3 7 2 16 -1 19 -3 4 -6 -2 -5 -13z"/>
<path d="M2318 2033 c7 -3 16 -2 19 1 4 3 -2 6 -13 5 -11 0 -14 -3 -6 -6z"/>
<path d="M2533 1995 c0 -27 2 -38 4 -22 2 15 2 37 0 50 -2 12 -4 0 -4 -28z"/>
<path d="M951 2014 c0 -11 3 -14 6 -6 3 7 2 16 -1 19 -3 4 -6 -2 -5 -13z"/>
<path d="M2260 2015 c-14 -8 -20 -14 -15 -14 6 0 21 6 35 14 14 8 21 14 15 14
-5 0 -21 -6 -35 -14z"/>
<path d="M1570 2011 c0 -6 4 -13 10 -16 6 -3 7 1 4 9 -7 18 -14 21 -14 7z"/>
<path d="M2165 1972 c-137 -76 -205 -144 -274 -276 -17 -32 -31 -51 -31 -41 0
9 5 25 10 36 8 13 8 24 0 37 -10 15 -10 15 -5 -4 3 -11 -2 -29 -10 -40 -15
-18 -16 -18 -11 6 3 14 3 20 1 14 -4 -7 -28 -10 -60 -8 -55 3 -55 3 -50 -24 4
-22 4 -23 -4 -7 -5 11 -8 31 -6 45 1 14 0 19 -2 11 -3 -7 -16 19 -29 58 -25
75 -68 166 -82 175 -4 2 7 -26 24 -62 60 -128 95 -336 76 -462 l-8 -55 -11 85
c-12 91 -30 152 -69 238 -25 54 -93 152 -128 185 -32 29 -32 19 0 -15 51 -55
68 -89 53 -100 -11 -8 -10 -9 3 -4 13 4 20 -4 30 -29 6 -19 16 -35 20 -35 4 0
8 -7 8 -16 0 -8 -5 -12 -10 -9 -6 3 -14 -4 -18 -16 l-9 -23 -6 23 c-3 13 -10
20 -16 16 -6 -3 -11 -1 -11 5 0 6 -12 29 -26 52 -15 23 -27 51 -28 64 0 12 -4
20 -8 18 -4 -3 -15 7 -25 22 -10 14 -31 40 -47 57 -30 34 -29 31 41 -73 87
-131 134 -278 136 -424 2 -74 -1 -101 -10 -101 -25 0 -216 150 -312 245 -83
82 -209 242 -224 283 -2 7 -7 9 -11 6 -4 -4 9 -31 29 -60 19 -30 33 -60 30
-67 -3 -7 -1 -10 4 -7 5 3 12 1 15 -3 6 -10 -43 -10 -59 -1 -5 4 -99 6 -207 5
l-197 -1 -7 65 c-14 134 -23 159 -19 49 6 -133 25 -228 72 -349 84 -218 226
-394 423 -525 374 -246 832 -246 1212 1 275 179 469 510 482 819 4 77 3 87 -3
45 -10 -63 -18 -101 -25 -107 -10 -10 -25 9 -20 25 5 14 4 15 -5 2 -6 -8 -11
-26 -12 -40 l0 -25 -12 23 c-10 23 -14 23 -125 20 -101 -3 -115 -1 -127 16
-12 16 -10 26 16 76 16 32 31 79 34 106 l5 49 -15 -52 c-41 -145 -147 -275
-309 -381 -90 -59 -280 -146 -285 -130 -6 18 20 120 42 163 51 102 141 202
239 265 80 52 41 47 -79 -11 -63 -30 -95 -53 -139 -102 -54 -60 -124 -182
-124 -219 0 -10 -4 -18 -10 -18 -13 0 -13 2 10 99 45 188 144 313 325 413 28
15 46 28 40 28 -5 0 -32 -13 -60 -28z m-25 -192 c-19 -16 -43 -32 -53 -35 -9
-4 -15 -11 -11 -16 3 -6 -2 -9 -12 -7 -10 2 -19 -1 -19 -7 -1 -14 -24 -52 -25
-40 0 6 -4 4 -9 -3 -7 -11 -9 -11 -14 2 -5 11 -1 16 13 16 10 0 22 5 26 11 4
8 -1 9 -17 4 -21 -7 -21 -5 6 16 17 13 33 28 37 34 5 6 8 6 8 0 0 -6 4 -5 8 1
6 11 81 54 91 54 3 0 -10 -13 -29 -30z m330 -79 c6 -13 7 -21 2 -17 -6 3 -12
1 -14 -6 -3 -8 -9 -8 -24 0 -18 11 -18 12 3 18 15 4 20 11 16 22 -8 22 1 13
17 -17z m-1783 -43 c-3 -8 -6 -5 -6 6 -1 11 2 17 5 13 3 -3 4 -12 1 -19z
m2070 -10 c-3 -7 -5 -2 -5 12 0 14 2 19 5 13 2 -7 2 -19 0 -25z m20 10 c-3 -8
-6 -5 -6 6 -1 11 2 17 5 13 3 -3 4 -12 1 -19z m-1150 -30 c-3 -8 -6 -5 -6 6
-1 11 2 17 5 13 3 -3 4 -12 1 -19z m346 8 c4 -10 1 -13 -8 -9 -8 3 -12 9 -9
14 7 12 11 11 17 -5z m422 -6 c-1 -11 -5 -23 -10 -27 -4 -5 -5 -2 -1 5 4 6 3
12 -1 12 -5 0 -15 -6 -23 -12 -8 -7 -4 -1 9 15 29 32 28 32 26 7z m-1245 6 c0
-3 -4 -8 -10 -11 -5 -3 -10 -1 -10 4 0 6 5 11 10 11 6 0 10 -2 10 -4z m1155
-114 c-3 -3 -11 0 -18 7 -9 10 -8 11 6 5 10 -3 15 -9 12 -12z"/>
<path d="M622 1960 c0 -14 2 -19 5 -12 2 6 2 18 0 25 -3 6 -5 1 -5 -13z"/>
<path d="M1350 1950 c6 -11 13 -20 16 -20 2 0 0 9 -6 20 -6 11 -13 20 -16 20
-2 0 0 -9 6 -20z"/>
<path d="M2802 1945 c0 -16 2 -22 5 -12 2 9 2 23 0 30 -3 6 -5 -1 -5 -18z"/>
<path d="M970 1950 c0 -8 11 -37 25 -65 14 -27 22 -39 19 -26 -9 37 -44 108
-44 91z"/>
<path d="M2511 1784 c0 -11 3 -14 6 -6 3 7 2 16 -1 19 -3 4 -6 -2 -5 -13z"/>
<path d="M1886 1747 c3 -10 9 -15 12 -12 3 3 0 11 -7 18 -10 9 -11 8 -5 -6z"/>
<path d="M1047 1722 c1 -8 3 -19 3 -25 0 -7 4 -6 10 3 12 19 13 33 1 26 -5 -4
-11 -3 -14 1 -2 5 -2 2 0 -5z"/>
<path d="M1540 1730 c0 -5 5 -10 11 -10 5 0 7 5 4 10 -3 6 -8 10 -11 10 -2 0
-4 -4 -4 -10z"/>
<path d="M1560 1696 c0 -8 5 -18 10 -21 6 -3 10 1 10 9 0 8 -4 18 -10 21 -5 3
-10 -1 -10 -9z"/>
</g>
</svg>
